<?xml version="1.0" encoding="UTF-8" standalone="no"?>
<!DOCTYPE svg PUBLIC "-//W3C//DTD SVG 1.1//EN" "http://www.w3.org/Graphics/SVG/1.1/DTD/svg11.dtd">
<svg width="100%" height="100%" viewBox="0 0 50 50" version="1.1" xmlns="http://www.w3.org/2000/svg" xmlns:xlink="http://www.w3.org/1999/xlink" xml:space="preserve" xmlns:serif="http://www.serif.com/" style="fill-rule:evenodd;clip-rule:evenodd;stroke-linejoin:round;stroke-miterlimit:2;">
    <g transform="matrix(0.0789061,0,0,0.0789061,-0.309312,6.2337)">
        <path d="M185.22,7.03C188.77,6.43 192.31,5.67 195.92,5.49C223.35,4.42 250.87,5.94 278.03,9.82C307.38,15.02 335.98,23.94 363.41,35.55C389.15,46.53 414.11,59.72 436.52,76.58C458.27,92.76 478.95,110.65 496.35,131.51C506.72,143.81 515.87,157.09 524.09,170.9C535.64,189.48 543.3,210.12 550.04,230.83C552.8,240.07 555.73,249.27 557.88,258.69C566.83,260.67 575.96,261.85 585.08,262.61C599.74,264.04 614.73,262.41 629.12,266.17C632.75,267.01 636.76,269.1 637.38,273.16C638.55,281.11 634.51,288.7 629.9,294.88C619.81,308.59 609.01,321.98 596.01,333.06C589.82,338.67 583.24,343.81 576.56,348.81C574.81,349.85 574.52,351.98 573.82,353.71C570.91,362.3 565.94,370.23 559.23,376.36C551.02,384.08 541.79,390.87 531.43,395.39C528.53,396.78 525.19,397.46 522.8,399.73C512.58,409.56 502.95,420.19 491.13,428.17C486.08,431.67 480.6,434.47 475.02,437.01C482.02,439.21 488.94,441.67 495.94,443.88C501.01,445.46 506.27,448.73 507.8,454.12C509.34,458.55 506.48,463.15 502.96,465.71C496.26,470.52 487.42,471.34 479.5,469.8C468.18,467.48 457.87,461.55 449.1,454.18C429.78,460.13 409.12,461.03 389.18,458.2C367.32,454.95 346.56,446.43 327.55,435.34C311.68,426.06 296.69,415.21 283.13,402.78C281.62,401.43 280.03,399.88 277.88,399.77C230.1,393.57 180.32,395.87 134.81,412.72C109.02,421.88 84.75,434.71 60.77,447.78C55.15,450.76 49.62,454.08 43.4,455.68C41.51,449.57 43.57,443.22 44.52,437.13C50.46,409.59 59.48,382.73 71.04,357.05C80.48,335.91 94.04,316.76 109.98,300.02C124.54,285.02 141.29,271.88 160.24,262.91C142.37,246 120.72,233.29 97.81,224.48C73.07,215.42 47.1,210.13 20.98,207.04C15.27,206.3 9.5,205.89 3.92,204.4C6.59,198.32 10.94,193.24 15.08,188.14C27.23,174 40.39,160.7 54.66,148.7C80.98,127.76 112.24,113.26 144.89,105.43C172.97,99.02 202.37,97.9 230.79,102.77C236.15,103.54 241.47,105.87 246.93,104.47C246.49,100.31 244.5,96.57 242.7,92.87C236.07,79.66 228.48,66.97 220.54,54.52C211.88,41.4 201.25,29.76 191.35,17.59C188.87,14.37 185.83,11.23 185.22,7.03M360.63,243.12C347.76,247.57 338.58,258.75 332.85,270.69C325.57,286.34 322.55,303.78 323.23,320.98C322.7,333.93 328.18,346.24 335,356.94C335.56,356.89 336.67,356.79 337.22,356.74C345.46,335.16 358.56,315.08 376.87,300.75C379.98,298.49 383.33,296.36 387.11,295.45C390.05,294.83 393.97,295.57 395.11,298.75C396.21,302.41 395.74,306.38 394.97,310.06C388.82,335.09 370.92,356.18 348.78,368.82C346.67,369.63 346.79,372.4 348.05,373.91C354.57,383.67 365.12,389.98 375.92,394.02C389.95,399.5 405.22,399.57 419.95,401.64C428.46,402.75 437.42,404.33 444.38,409.71C446.38,410.98 448.43,413.12 451.03,412.31C453.71,411.72 455.05,409.12 456.73,407.23C454.55,406.78 452.41,406.21 450.51,405.03C441.58,405.42 433.23,398.93 430.7,390.49C426.38,377.15 426.05,362.94 426.22,349.05C426.34,327.4 427.14,305.39 421.92,284.2C417.84,269.19 409.9,253.82 395.61,246.33C385.1,240.33 372.05,238.83 360.63,243.12M522.45,365.39C515.84,371.5 509.17,377.53 502.33,383.37C502.65,388.75 499.8,393.64 496.93,397.96C488.5,409.73 476.54,418.87 463.1,424.21C461.94,424.81 459.28,425.83 460.47,427.51C462.25,431.11 466.8,431.39 470.18,430.2C479.66,426.86 488.01,421.03 495.77,414.76C508.06,404.3 519.06,392.26 527.85,378.7C531.94,372.26 536.07,365.6 537.45,357.97C536.98,356.97 536.52,355.98 536.07,354.99C530.46,356.83 526.67,361.55 522.45,365.39Z" style="fill:rgb(38,36,36);fill-rule:nonzero;"/>
    </g>
</svg>
